<svg width="29" height="28" viewBox="0 0 29 28" fill="none" xmlns="http://www.w3.org/2000/svg">
<g id="Vector">
<path d="M20.221 5.99048C21.1707 5.99048 21.9373 5.22386 21.9373 4.27417C21.9373 3.12996 20.221 1.18481 20.221 1.18481C20.221 1.18481 18.5047 3.12996 18.5047 4.27417C18.5047 5.22386 19.2713 5.99048 20.221 5.99048ZM14.5 5.99048C15.4497 5.99048 16.2163 5.22386 16.2163 4.27417C16.2163 3.12996 14.5 1.18481 14.5 1.18481C14.5 1.18481 12.7837 3.12996 12.7837 4.27417C12.7837 5.22386 13.5503 5.99048 14.5 5.99048ZM8.77897 5.99048C9.72866 5.99048 10.4953 5.22386 10.4953 4.27417C10.4953 3.12996 8.77897 1.18481 8.77897 1.18481C8.77897 1.18481 7.06266 3.12996 7.06266 4.27417C7.06266 5.22386 7.82928 5.99048 8.77897 5.99048ZM22.4179 9.43454C22.1891 8.75946 21.5483 8.27889 20.7931 8.27889H8.20687C7.45169 8.27889 6.82238 8.75946 6.5821 9.43454L4.20215 16.2883V25.442C4.20215 26.0713 4.71704 26.5862 5.34635 26.5862H6.49056C7.11987 26.5862 7.63477 26.0713 7.63477 25.442V24.2978H21.3652V25.442C21.3652 26.0713 21.8801 26.5862 22.5094 26.5862H23.6536C24.283 26.5862 24.7979 26.0713 24.7979 25.442V16.2883L22.4179 9.43454ZM8.60734 10.5673H20.3812L21.5712 13.9999H7.41737L8.60734 10.5673ZM22.5094 22.0094H6.49056V16.6774L6.62786 16.2883H22.3836L22.5094 16.6774V22.0094Z" fill="#000C2A"/>
<path d="M9.35107 20.8652C10.299 20.8652 11.0674 20.0968 11.0674 19.1489C11.0674 18.201 10.299 17.4326 9.35107 17.4326C8.40318 17.4326 7.63477 18.201 7.63477 19.1489C7.63477 20.0968 8.40318 20.8652 9.35107 20.8652Z" fill="#000C2A"/>
<path d="M19.6489 20.8652C20.5968 20.8652 21.3652 20.0968 21.3652 19.1489C21.3652 18.201 20.5968 17.4326 19.6489 17.4326C18.701 17.4326 17.9326 18.201 17.9326 19.1489C17.9326 20.0968 18.701 20.8652 19.6489 20.8652Z" fill="#000C2A"/>
</g>
</svg>
