<svg width="25" height="24" viewBox="0 0 25 24" fill="none" xmlns="http://www.w3.org/2000/svg">
<g id="SVG">
<path id="Vector" d="M20.3439 4.58162C19.3706 3.59873 18.2127 2.81782 16.9368 2.28377C15.6608 1.74972 14.2919 1.47304 12.9087 1.46964C11.5254 1.46623 10.1552 1.73617 8.87658 2.26393C7.59799 2.7917 6.43628 3.56689 5.45819 4.54498C4.4801 5.52307 3.70491 6.68478 3.17714 7.96337C2.64937 9.24196 2.37944 10.6122 2.38284 11.9954C2.38625 13.3787 2.66293 14.7476 3.19698 16.0236C3.73103 17.2995 4.51194 18.4574 5.49483 19.4307C6.46809 20.4136 7.62597 21.1945 8.90195 21.7285C10.1779 22.2626 11.5468 22.5393 12.9301 22.5427C14.3133 22.5461 15.6836 22.2761 16.9621 21.7484C18.2407 21.2206 19.4024 20.4454 20.3805 19.4673C21.3586 18.4892 22.1338 17.3275 22.6616 16.0489C23.1893 14.7703 23.4593 13.4001 23.4559 12.0169C23.4525 10.6336 23.1758 9.26471 22.6417 7.98874C22.1077 6.71276 21.3268 5.55488 20.3439 4.58162ZM3.91936 12.0062C3.91902 11.2096 4.02464 10.4166 4.23342 9.64787C4.57748 10.3885 5.07717 11.0283 5.41702 11.7882C5.85623 12.7651 7.03561 12.4941 7.55639 13.3501C8.01858 14.1099 7.52498 15.0708 7.87092 15.8658C8.12217 16.4429 8.71467 16.569 9.12342 16.9908C9.54108 17.4165 9.53217 17.9996 9.59592 18.5546C9.66786 19.2067 9.78454 19.853 9.94514 20.4891C9.94514 20.4938 9.94514 20.499 9.94889 20.5037C6.44124 19.2718 3.91936 15.9282 3.91936 12.0062ZM12.9194 21.0062C12.4167 21.006 11.915 20.964 11.4194 20.8805C11.4245 20.7535 11.4269 20.6349 11.4395 20.5524C11.5534 19.8071 11.9265 19.0782 12.43 18.5204C12.9273 17.9701 13.6089 17.5979 14.0289 16.9735C14.4405 16.3641 14.5637 15.5438 14.394 14.8318C14.1442 13.7799 12.715 13.4288 11.9444 12.8583C11.5014 12.5302 11.1072 12.023 10.5255 11.9818C10.2573 11.963 10.0328 12.0207 9.76702 11.9522C9.52327 11.889 9.33202 11.7577 9.07233 11.7919C8.58717 11.8557 8.28108 12.3741 7.75983 12.3038C7.2653 12.2377 6.75577 11.6588 6.64327 11.1877C6.49889 10.5821 6.97795 10.3857 7.49123 10.3318C7.70545 10.3093 7.94592 10.2849 8.1517 10.3637C8.42264 10.464 8.55061 10.7293 8.79389 10.8633C9.24999 11.1137 9.34233 10.7138 9.27248 10.3088C9.16795 9.70225 9.04608 9.45521 9.58702 9.03756C9.96202 8.74975 10.2826 8.54162 10.2226 8.02459C10.187 7.72084 10.0206 7.5835 10.1758 7.28115C10.2934 7.051 10.6164 6.84334 10.8269 6.706C11.3701 6.35162 13.1542 6.37787 12.4253 5.386C12.2111 5.0949 11.8159 4.57459 11.4409 4.50334C10.9722 4.41475 10.764 4.93787 10.4373 5.1685C10.0998 5.40709 9.44264 5.67803 9.10467 5.30912C8.64998 4.81271 9.40608 4.65006 9.57342 4.30318C9.65077 4.14146 9.57342 3.91693 9.44311 3.70553C9.61217 3.63428 9.78405 3.56818 9.95873 3.50725C10.0682 3.5881 10.1981 3.63681 10.3337 3.64787C10.6473 3.6685 10.9431 3.49881 11.2169 3.71256C11.5206 3.94693 11.7395 4.24318 12.1426 4.31631C12.5326 4.38709 12.9456 4.15975 13.0422 3.76037C13.1008 3.51756 13.0422 3.26115 12.9859 3.01037C14.7391 3.02046 16.4506 3.54549 17.9078 4.52021C17.814 4.48459 17.702 4.48881 17.5637 4.55303C17.2792 4.68521 16.8761 5.02178 16.8428 5.35553C16.8048 5.73428 17.3636 5.78771 17.6289 5.78771C18.0273 5.78771 18.4309 5.60959 18.3025 5.14928C18.2467 4.94959 18.1708 4.74193 18.0484 4.61631C18.3425 4.82038 18.6243 5.04171 18.8922 5.27912C18.888 5.28334 18.8837 5.28709 18.8795 5.29178C18.6095 5.57303 18.2959 5.79568 18.1112 6.13787C17.9809 6.37881 17.8342 6.49318 17.5703 6.55553C17.425 6.58975 17.259 6.6024 17.1372 6.6999C16.7978 6.96709 16.9909 7.60928 17.3125 7.80193C17.7189 8.04521 18.3217 7.93084 18.6283 7.5835C18.8678 7.31162 19.0089 6.83959 19.4397 6.84006C19.6293 6.83966 19.8115 6.91392 19.9469 7.04678C20.125 7.23146 20.0898 7.40396 20.1278 7.63459C20.1948 8.04428 20.5562 7.82209 20.7761 7.61537C20.9363 7.90057 21.0809 8.19428 21.2092 8.49521C20.9673 8.8435 20.7751 9.22318 20.1934 8.81725C19.8451 8.57396 19.6309 8.22099 19.1936 8.11131C18.8115 8.01756 18.4201 8.11506 18.0428 8.18021C17.6139 8.25475 17.1053 8.28756 16.78 8.6124C16.4655 8.92553 16.299 9.34459 15.9644 9.65912C15.317 10.2685 15.0437 10.9337 15.4628 11.7952C15.8659 12.6235 16.7092 13.073 17.619 13.014C18.513 12.9544 19.4415 12.436 19.4158 13.7349C19.4064 14.1947 19.5025 14.513 19.6436 14.9401C19.7744 15.3338 19.7655 15.7154 19.7955 16.1218C19.824 16.5977 19.8984 17.0697 20.0176 17.5313C19.1774 18.6131 18.1011 19.4885 16.8709 20.0907C15.6407 20.693 14.2891 21.0061 12.9194 21.0062Z" fill="#16314D" stroke="#16314D" stroke-width="0.046875"/>
</g>
</svg>
