<svg width="20" height="20" viewBox="0 0 20 20" fill="none" xmlns="http://www.w3.org/2000/svg">
<g id="Img - navigate circle outline &#226;&#134;&#146; SVG">
<path id="Vector" d="M13.1549 6.2891L5.86859 9.5059C5.4596 9.6934 5.5971 10.3133 6.0471 10.3133H9.53148C9.57292 10.3133 9.61266 10.3298 9.64196 10.3591C9.67126 10.3884 9.68773 10.4281 9.68773 10.4696V13.9532C9.68773 14.4032 10.3127 14.5391 10.4994 14.1313L13.7112 6.84535C13.7471 6.7675 13.7583 6.6805 13.7433 6.59608C13.7282 6.51166 13.6876 6.43389 13.627 6.37325C13.5664 6.31262 13.4886 6.27204 13.4042 6.25699C13.3198 6.24194 13.2328 6.25315 13.1549 6.2891Z" fill="#16314D" stroke="#16314D" stroke-width="0.0390625"/>
<path id="Vector_2" d="M17.5 10C17.5 5.85938 14.1406 2.5 10 2.5C5.85938 2.5 2.5 5.85938 2.5 10C2.5 14.1406 5.85938 17.5 10 17.5C14.1406 17.5 17.5 14.1406 17.5 10Z" stroke="#16314D" stroke-width="1.25" stroke-miterlimit="10"/>
</g>
</svg>
